<svg width="35" height="37" viewBox="0 0 35 37" fill="none" xmlns="http://www.w3.org/2000/svg">
<path d="M23.9969 11.4931C24.305 11.183 24.7151 11.0115 25.1405 11.0149C25.566 11.0183 25.9735 11.1963 26.2772 11.5114C26.5809 11.8264 26.7569 12.2538 26.7682 12.7034C26.7794 13.153 26.625 13.5897 26.3375 13.9212L17.6094 25.4606C17.4593 25.6315 17.2781 25.7687 17.0768 25.8638C16.8754 25.959 16.658 26.0103 16.4374 26.0146C16.2169 26.019 15.9978 25.9762 15.7932 25.889C15.5887 25.8017 15.4028 25.6718 15.2469 25.5069L9.45874 19.388C9.29755 19.2292 9.16827 19.0377 9.0786 18.825C8.98893 18.6122 8.94071 18.3826 8.93682 18.1497C8.93294 17.9168 8.97346 17.6855 9.05598 17.4696C9.13849 17.2536 9.26131 17.0574 9.4171 16.8927C9.57289 16.728 9.75846 16.5982 9.96275 16.511C10.167 16.4237 10.3858 16.3809 10.6061 16.385C10.8264 16.3891 11.0437 16.4401 11.2449 16.5349C11.4462 16.6297 11.6273 16.7663 11.7775 16.9367L16.3581 21.7768L23.9553 11.544C23.969 11.5262 23.9836 11.5092 23.9991 11.4931H23.9969Z" fill="black"/>
</svg>
