<svg width="54" height="47" viewBox="0 0 54 47" fill="none" xmlns="http://www.w3.org/2000/svg">
<g filter="url(#filter0_d_152_35)">
<path d="M18.4286 15C17.5193 15 16.6472 15.3582 16.0042 15.9958C15.3612 16.6335 15 17.4983 15 18.4V28.6C15 29.5017 15.3612 30.3665 16.0042 31.0042C16.6472 31.6418 17.5193 32 18.4286 32H27.8571C28.7665 32 29.6385 31.6418 30.2815 31.0042C30.9245 30.3665 31.2857 29.5017 31.2857 28.6V18.4C31.2857 17.4983 30.9245 16.6335 30.2815 15.9958C29.6385 15.3582 28.7665 15 27.8571 15H18.4286ZM36.0743 31.15L33 28.1013V18.8987L36.0743 15.85C37.1531 14.779 39 15.5372 39 17.0513V29.9487C39 31.4628 37.1531 32.221 36.0743 31.15Z" fill="white"/>
</g>
<defs>
<filter id="filter0_d_152_35" x="0" y="0" width="54" height="47" filterUnits="userSpaceOnUse" color-interpolation-filters="sRGB">
<feFlood flood-opacity="0" result="BackgroundImageFix"/>
<feColorMatrix in="SourceAlpha" type="matrix" values="0 0 0 0 0 0 0 0 0 0 0 0 0 0 0 0 0 0 127 0" result="hardAlpha"/>
<feOffset/>
<feGaussianBlur stdDeviation="7.5"/>
<feComposite in2="hardAlpha" operator="out"/>
<feColorMatrix type="matrix" values="0 0 0 0 1 0 0 0 0 1 0 0 0 0 1 0 0 0 0.5 0"/>
<feBlend mode="normal" in2="BackgroundImageFix" result="effect1_dropShadow_152_35"/>
<feBlend mode="normal" in="SourceGraphic" in2="effect1_dropShadow_152_35" result="shape"/>
</filter>
</defs>
</svg>
