<svg width="50" height="50" viewBox="0 0 50 50" fill="none" xmlns="http://www.w3.org/2000/svg">
<g filter="url(#filter0_d_152_37)">
<path d="M15 32C15 33.7 16.3 35 18 35H32C33.7 35 35 33.7 35 32V24H15V32ZM32 17H30V16C30 15.4 29.6 15 29 15C28.4 15 28 15.4 28 16V17H22V16C22 15.4 21.6 15 21 15C20.4 15 20 15.4 20 16V17H18C16.3 17 15 18.3 15 20V22H35V20C35 18.3 33.7 17 32 17Z" fill="white"/>
</g>
<defs>
<filter id="filter0_d_152_37" x="0" y="0" width="50" height="50" filterUnits="userSpaceOnUse" color-interpolation-filters="sRGB">
<feFlood flood-opacity="0" result="BackgroundImageFix"/>
<feColorMatrix in="SourceAlpha" type="matrix" values="0 0 0 0 0 0 0 0 0 0 0 0 0 0 0 0 0 0 127 0" result="hardAlpha"/>
<feOffset/>
<feGaussianBlur stdDeviation="7.5"/>
<feComposite in2="hardAlpha" operator="out"/>
<feColorMatrix type="matrix" values="0 0 0 0 1 0 0 0 0 1 0 0 0 0 1 0 0 0 0.5 0"/>
<feBlend mode="normal" in2="BackgroundImageFix" result="effect1_dropShadow_152_37"/>
<feBlend mode="normal" in="SourceGraphic" in2="effect1_dropShadow_152_37" result="shape"/>
</filter>
</defs>
</svg>
