<svg width="51" height="50" viewBox="0 0 51 50" fill="none" xmlns="http://www.w3.org/2000/svg">
<g filter="url(#filter0_d_152_39)">
<path d="M35.4338 24.0708C35.6692 23.8958 35.8439 23.6516 35.9333 23.3725C36.0226 23.0934 36.0222 22.7934 35.9321 22.5145C35.842 22.2356 35.6667 21.9919 35.4307 21.8175C35.1948 21.6431 34.9101 21.5467 34.6165 21.5419L28.9147 21.327C28.8867 21.3251 28.8598 21.3151 28.8373 21.2983C28.8149 21.2814 28.7977 21.2585 28.788 21.2322L26.8177 15.9216C26.7188 15.6514 26.539 15.4181 26.3027 15.2532C26.0664 15.0884 25.7851 15 25.4968 15C25.2086 15 24.9272 15.0884 24.691 15.2532C24.4547 15.4181 24.2749 15.6514 24.1759 15.9216L22.212 21.2511C22.2023 21.2774 22.1851 21.3004 22.1627 21.3172C22.1402 21.334 22.1133 21.344 22.0853 21.346L16.3835 21.5609C16.0899 21.5657 15.8052 21.6621 15.5693 21.8365C15.3333 22.0109 15.158 22.2546 15.0679 22.5335C14.9778 22.8123 14.9774 23.1123 15.0667 23.3914C15.1561 23.6705 15.3308 23.9147 15.5662 24.0898L20.039 27.5986C20.0613 27.6161 20.0781 27.6399 20.0871 27.6669C20.0961 27.6938 20.097 27.7228 20.0896 27.7503L18.5502 33.1937C18.4704 33.4709 18.4781 33.7659 18.5723 34.0385C18.6665 34.3112 18.8425 34.5482 19.0765 34.7175C19.3105 34.8867 19.5911 34.98 19.88 34.9845C20.169 34.989 20.4523 34.9045 20.6915 34.7426L25.4176 31.5815C25.4409 31.5655 25.4685 31.5569 25.4968 31.5569C25.5251 31.5569 25.5527 31.5655 25.576 31.5815L30.3022 34.7426C30.5381 34.91 30.8204 35 31.1099 35C31.3994 35 31.6818 34.91 31.9177 34.7426C32.1517 34.5749 32.328 34.339 32.4221 34.0673C32.5163 33.7956 32.5238 33.5014 32.4435 33.2253L30.8914 27.7629C30.8831 27.7355 30.8836 27.7062 30.8927 27.6791C30.9017 27.6519 30.919 27.6282 30.942 27.6112L35.4338 24.0708Z" fill="white"/>
</g>
<defs>
<filter id="filter0_d_152_39" x="0" y="0" width="51" height="50" filterUnits="userSpaceOnUse" color-interpolation-filters="sRGB">
<feFlood flood-opacity="0" result="BackgroundImageFix"/>
<feColorMatrix in="SourceAlpha" type="matrix" values="0 0 0 0 0 0 0 0 0 0 0 0 0 0 0 0 0 0 127 0" result="hardAlpha"/>
<feOffset/>
<feGaussianBlur stdDeviation="7.5"/>
<feComposite in2="hardAlpha" operator="out"/>
<feColorMatrix type="matrix" values="0 0 0 0 1 0 0 0 0 1 0 0 0 0 1 0 0 0 0.5 0"/>
<feBlend mode="normal" in2="BackgroundImageFix" result="effect1_dropShadow_152_39"/>
<feBlend mode="normal" in="SourceGraphic" in2="effect1_dropShadow_152_39" result="shape"/>
</filter>
</defs>
</svg>
