<svg width="214" height="15" viewBox="0 0 214 15" fill="none" xmlns="http://www.w3.org/2000/svg">
<path d="M8.176 12.084V7.072C8.176 4.048 6.384 3.334 4.354 3.334C3.402 3.334 2.226 3.544 1.484 4.09C0.994 4.454 0.77 5.028 1.036 5.588C1.288 6.148 2.03 6.344 2.534 6.092C2.786 5.98 2.968 5.882 3.192 5.812C3.528 5.714 3.808 5.658 4.13 5.658C4.802 5.658 5.39 5.882 5.418 6.708H3.976C2.156 6.708 0.546 7.38 0.546 9.494C0.546 11.692 2.254 12.322 3.416 12.322H3.724C4.564 12.322 5.32 12 5.852 11.496L5.964 12.084H8.176ZM5.418 9.27C5.418 9.858 4.816 10.166 4.298 10.166H4.102C3.612 10.166 3.318 9.942 3.318 9.48C3.318 9.032 3.612 8.766 4.144 8.766H5.418V9.27ZM17.54 12.084V1.654C17.54 0.729999 16.868 0.253999 16.126 0.253999C15.384 0.253999 14.698 0.729999 14.698 1.654V3.992C14.208 3.586 13.578 3.334 12.808 3.334C10.96 3.334 9.39203 4.244 9.39203 7.198V8.458C9.39203 11.412 10.96 12.322 12.808 12.322C13.816 12.322 14.628 11.888 15.16 11.174L15.314 12.084H17.54ZM12.276 7.002C12.276 6.05 12.99 5.728 13.48 5.728C13.956 5.728 14.656 6.036 14.698 6.932V8.724C14.656 9.62 13.956 9.928 13.48 9.928C12.99 9.928 12.276 9.606 12.276 8.654V7.002ZM27.001 12.084V1.654C27.001 0.729999 26.329 0.253999 25.587 0.253999C24.845 0.253999 24.159 0.729999 24.159 1.654V3.992C23.669 3.586 23.039 3.334 22.269 3.334C20.421 3.334 18.853 4.244 18.853 7.198V8.458C18.853 11.412 20.421 12.322 22.269 12.322C23.277 12.322 24.089 11.888 24.621 11.174L24.775 12.084H27.001ZM21.737 7.002C21.737 6.05 22.451 5.728 22.941 5.728C23.417 5.728 24.117 6.036 24.159 6.932V8.724C24.117 9.62 23.417 9.928 22.941 9.928C22.451 9.928 21.737 9.606 21.737 8.654V7.002ZM39.8537 12.084V7.072C39.8537 4.048 38.0617 3.334 36.0317 3.334C35.0797 3.334 33.9037 3.544 33.1617 4.09C32.6717 4.454 32.4477 5.028 32.7137 5.588C32.9657 6.148 33.7077 6.344 34.2117 6.092C34.4637 5.98 34.6457 5.882 34.8697 5.812C35.2057 5.714 35.4857 5.658 35.8077 5.658C36.4797 5.658 37.0677 5.882 37.0957 6.708H35.6537C33.8337 6.708 32.2237 7.38 32.2237 9.494C32.2237 11.692 33.9317 12.322 35.0937 12.322H35.4017C36.2417 12.322 36.9977 12 37.5297 11.496L37.6417 12.084H39.8537ZM37.0957 9.27C37.0957 9.858 36.4937 10.166 35.9757 10.166H35.7797C35.2897 10.166 34.9957 9.942 34.9957 9.48C34.9957 9.032 35.2897 8.766 35.8217 8.766H37.0957V9.27ZM46.1276 9.452C46.1276 11.566 47.2056 12.322 49.0676 12.322C49.5436 12.322 50.0756 12.154 50.3976 11.944C50.7896 11.692 51.0416 11.216 50.9156 10.642C50.8176 10.18 50.4256 9.872 49.9636 9.872C49.6836 9.872 49.5576 9.942 49.3476 9.928C49.1096 9.914 48.8996 9.816 48.8996 9.396V5.924H49.7256C50.6076 5.924 50.9576 5.364 50.9576 4.776C50.9576 4.202 50.6216 3.6 49.7256 3.6H48.8996V2.144C48.8996 1.192 48.2136 0.758 47.5136 0.758C46.8136 0.758 46.1276 1.192 46.1276 2.144V3.6H45.6656C44.7696 3.6 44.4336 4.202 44.4336 4.776C44.4336 5.364 44.7836 5.924 45.6656 5.924H46.1276V9.452ZM59.1994 12.084V7.072C59.1994 4.048 57.4074 3.334 55.3774 3.334C54.4254 3.334 53.2494 3.544 52.5074 4.09C52.0174 4.454 51.7934 5.028 52.0594 5.588C52.3114 6.148 53.0534 6.344 53.5574 6.092C53.8094 5.98 53.9914 5.882 54.2154 5.812C54.5514 5.714 54.8314 5.658 55.1534 5.658C55.8254 5.658 56.4134 5.882 56.4414 6.708H54.9994C53.1794 6.708 51.5694 7.38 51.5694 9.494C51.5694 11.692 53.2774 12.322 54.4394 12.322H54.7474C55.5874 12.322 56.3434 12 56.8754 11.496L56.9874 12.084H59.1994ZM56.4414 9.27C56.4414 9.858 55.8394 10.166 55.3214 10.166H55.1254C54.6354 10.166 54.3414 9.942 54.3414 9.48C54.3414 9.032 54.6354 8.766 55.1674 8.766H56.4414V9.27ZM63.2435 6.008C63.2575 5.77 63.5375 5.56 63.9855 5.56C64.4475 5.56 65.1335 5.728 65.4695 5.938C65.5955 6.022 65.8755 6.106 66.0575 6.106C66.5615 6.106 66.9815 5.924 67.1495 5.392C67.3455 4.748 66.9255 4.174 66.3515 3.852C65.8615 3.572 65.0635 3.334 63.9435 3.334C62.5435 3.334 61.1715 3.838 60.6255 5.014C60.0235 6.33 60.2195 8.108 62.4035 8.766C62.5715 8.822 62.7815 8.864 62.9775 8.906C64.0555 9.13 64.7135 9.284 64.6715 9.62C64.6435 9.886 64.3495 10.096 63.8035 10.096C63.2575 10.096 62.6275 9.97 62.3335 9.788C62.0955 9.648 61.8715 9.452 61.4235 9.466C61.0595 9.48 60.7235 9.606 60.5275 9.9C60.1355 10.488 60.3735 11.16 60.8635 11.566C61.5775 12.154 62.7675 12.322 63.7195 12.322C65.6795 12.322 67.2615 11.566 67.4715 9.914C67.6815 8.22 66.8555 7.184 65.1895 6.764C65.0215 6.722 64.8395 6.68 64.6575 6.652C63.6075 6.456 63.2155 6.344 63.2435 6.008ZM68.5268 12.084H71.3268V9.9L72.1668 9.088L73.9868 12.084H77.1508L74.0568 7.282L75.9048 5.504C76.4228 5.014 76.3388 4.02 75.7508 3.572C75.1628 3.124 74.2808 3.264 73.8048 3.796L71.3268 6.526V1.654C71.3268 0.729999 70.6688 0.253999 69.9408 0.253999C69.2128 0.253999 68.5268 0.729999 68.5268 1.654V12.084ZM82.5631 9.452C82.5631 11.566 83.6411 12.322 85.5031 12.322C85.9791 12.322 86.5111 12.154 86.8331 11.944C87.2251 11.692 87.4771 11.216 87.3511 10.642C87.2531 10.18 86.8611 9.872 86.3991 9.872C86.1191 9.872 85.9931 9.942 85.7831 9.928C85.5451 9.914 85.3351 9.816 85.3351 9.396V5.924H86.1611C87.0431 5.924 87.3931 5.364 87.3931 4.776C87.3931 4.202 87.0571 3.6 86.1611 3.6H85.3351V2.144C85.3351 1.192 84.6491 0.758 83.9491 0.758C83.2491 0.758 82.5631 1.192 82.5631 2.144V3.6H82.1011C81.2051 3.6 80.8691 4.202 80.8691 4.776C80.8691 5.364 81.2191 5.924 82.1011 5.924H82.5631V9.452ZM88.047 8.472C88.047 11.482 90.245 12.35 92.107 12.35C93.969 12.35 96.167 11.482 96.167 8.472V7.184C96.167 4.174 93.969 3.306 92.107 3.306C90.203 3.306 88.047 4.174 88.047 7.184V8.472ZM93.353 8.598C93.353 9.592 92.709 9.984 92.107 9.984C91.505 9.984 90.861 9.592 90.861 8.598V7.058C90.861 6.064 91.505 5.672 92.107 5.672C92.709 5.672 93.353 6.064 93.353 7.058V8.598ZM109.332 5.336C109.682 4.51 109.304 3.726 108.576 3.46C107.848 3.194 106.994 3.376 106.686 4.258L105.202 8.612L103.592 4.258C103.27 3.376 102.402 3.194 101.674 3.46C100.946 3.726 100.526 4.524 100.89 5.336L103.746 11.692V11.706C103.522 12.126 102.934 12.308 102.36 12.196C101.534 12.042 101.072 12.56 100.974 13.19C100.89 13.806 101.296 14.464 102.108 14.576C104.054 14.856 105.538 14.044 106.392 12.07L109.332 5.336ZM110.059 8.472C110.059 11.482 112.257 12.35 114.119 12.35C115.981 12.35 118.179 11.482 118.179 8.472V7.184C118.179 4.174 115.981 3.306 114.119 3.306C112.215 3.306 110.059 4.174 110.059 7.184V8.472ZM115.365 8.598C115.365 9.592 114.721 9.984 114.119 9.984C113.517 9.984 112.873 9.592 112.873 8.598V7.058C112.873 6.064 113.517 5.672 114.119 5.672C114.721 5.672 115.365 6.064 115.365 7.058V8.598ZM122.618 12.322C123.626 12.322 124.48 11.888 124.998 11.174L125.152 12.084H127.378V4.72C127.378 3.768 126.734 3.334 125.95 3.334C125.18 3.334 124.536 3.768 124.536 4.72V8.724C124.508 9.62 123.878 9.928 123.416 9.928C122.94 9.928 122.31 9.606 122.31 8.654V4.734C122.31 3.768 121.652 3.334 120.868 3.334C120.084 3.334 119.426 3.768 119.426 4.734V8.486C119.426 11.44 120.84 12.322 122.618 12.322ZM131.62 12.084V7.156C131.662 6.456 132.124 6.022 132.894 5.966C133.09 5.952 133.342 5.966 133.538 5.966C134.154 5.966 134.658 5.546 134.756 4.888C134.854 4.23 134.546 3.67 134.014 3.446C133.804 3.362 133.566 3.334 133.356 3.334C132.67 3.334 132.012 3.628 131.494 4.118C131.256 3.6 130.738 3.334 130.192 3.334C129.45 3.334 128.778 3.81 128.778 4.734V12.084H131.62ZM142.243 12.084V7.002C142.243 6.05 142.887 5.728 143.363 5.728C143.839 5.728 144.469 6.05 144.469 7.002V12.084H147.353V7.17C147.353 4.216 145.939 3.334 144.161 3.334C143.419 3.334 142.663 3.6 142.117 4.104C141.879 3.6 141.361 3.334 140.815 3.334C140.073 3.334 139.401 3.81 139.401 4.734V12.084H142.243ZM148.6 8.472C148.6 11.482 150.798 12.35 152.66 12.35C154.522 12.35 156.72 11.482 156.72 8.472V7.184C156.72 4.174 154.522 3.306 152.66 3.306C150.756 3.306 148.6 4.174 148.6 7.184V8.472ZM153.906 8.598C153.906 9.592 153.262 9.984 152.66 9.984C152.058 9.984 151.414 9.592 151.414 8.598V7.058C151.414 6.064 152.058 5.672 152.66 5.672C153.262 5.672 153.906 6.064 153.906 7.058V8.598ZM159.003 9.452C159.003 11.566 160.081 12.322 161.943 12.322C162.419 12.322 162.951 12.154 163.273 11.944C163.665 11.692 163.917 11.216 163.791 10.642C163.693 10.18 163.301 9.872 162.839 9.872C162.559 9.872 162.433 9.942 162.223 9.928C161.985 9.914 161.775 9.816 161.775 9.396V5.924H162.601C163.483 5.924 163.833 5.364 163.833 4.776C163.833 4.202 163.497 3.6 162.601 3.6H161.775V2.144C161.775 1.192 161.089 0.758 160.389 0.758C159.689 0.758 159.003 1.192 159.003 2.144V3.6H158.541C157.645 3.6 157.309 4.202 157.309 4.776C157.309 5.364 157.659 5.924 158.541 5.924H159.003V9.452ZM168.798 12.322C169.82 12.322 170.814 12.028 171.262 11.762C171.934 11.37 172.27 10.782 171.976 10.096C171.794 9.676 171.346 9.508 170.87 9.564C170.632 9.592 170.422 9.704 170.212 9.774C169.834 9.9 169.54 9.956 168.854 9.956C168.182 9.956 167.258 9.634 167.258 8.682V8.668H172.27C172.312 8.43 172.34 8.038 172.34 7.8C172.34 4.09 170.422 3.334 168.476 3.334C166.684 3.334 164.486 4.23 164.486 7.212V8.444C164.486 11.37 166.768 12.322 168.798 12.322ZM168.49 5.602C169.106 5.602 169.666 5.91 169.624 6.834H167.258C167.272 5.91 167.874 5.602 168.49 5.602ZM175.849 12.084L175.989 11.174C176.535 11.888 177.333 12.322 178.355 12.322C180.203 12.322 181.771 11.412 181.771 8.458V7.198C181.771 4.244 180.203 3.334 178.355 3.334C177.585 3.334 176.955 3.586 176.465 3.992V1.654C176.465 0.729999 175.779 0.253999 175.037 0.253999C174.295 0.253999 173.623 0.729999 173.623 1.654V12.084H175.849ZM178.887 8.654C178.887 9.606 178.173 9.928 177.683 9.928C177.193 9.928 176.465 9.606 176.465 8.654V6.932C176.493 6.036 177.207 5.728 177.683 5.728C178.173 5.728 178.887 6.05 178.887 7.002V8.654ZM182.971 8.472C182.971 11.482 185.169 12.35 187.031 12.35C188.893 12.35 191.091 11.482 191.091 8.472V7.184C191.091 4.174 188.893 3.306 187.031 3.306C185.127 3.306 182.971 4.174 182.971 7.184V8.472ZM188.277 8.598C188.277 9.592 187.633 9.984 187.031 9.984C186.429 9.984 185.785 9.592 185.785 8.598V7.058C185.785 6.064 186.429 5.672 187.031 5.672C187.633 5.672 188.277 6.064 188.277 7.058V8.598ZM192.268 8.472C192.268 11.482 194.466 12.35 196.328 12.35C198.19 12.35 200.388 11.482 200.388 8.472V7.184C200.388 4.174 198.19 3.306 196.328 3.306C194.424 3.306 192.268 4.174 192.268 7.184V8.472ZM197.574 8.598C197.574 9.592 196.93 9.984 196.328 9.984C195.726 9.984 195.082 9.592 195.082 8.598V7.058C195.082 6.064 195.726 5.672 196.328 5.672C196.93 5.672 197.574 6.064 197.574 7.058V8.598ZM201.705 12.084H204.505V9.9L205.345 9.088L207.165 12.084H210.329L207.235 7.282L209.083 5.504C209.601 5.014 209.517 4.02 208.929 3.572C208.341 3.124 207.459 3.264 206.983 3.796L204.505 6.526V1.654C204.505 0.729999 203.847 0.253999 203.119 0.253999C202.391 0.253999 201.705 0.729999 201.705 1.654V12.084ZM213.861 8.808V1.402C213.861 0.505999 213.161 0.0159991 212.433 0.0159991C211.691 0.0159991 211.005 0.492 211.005 1.402V8.808H213.861ZM210.935 10.88C210.935 11.748 211.495 12.294 212.433 12.294C213.371 12.294 213.931 11.734 213.931 10.88C213.931 10.026 213.371 9.466 212.433 9.466C211.495 9.466 210.935 10.012 210.935 10.88Z" fill="#8A8A8A"/>
</svg>
