<svg width="127" height="27" viewBox="0 0 127 27" fill="none" xmlns="http://www.w3.org/2000/svg">
<path d="M15 4.01C15.81 2.09 15.03 0.979998 13.47 0.559999C11.91 0.169998 10.5 0.679999 9.66 2.63L0.93 22.94C0.09 24.89 0.96 26.03 2.49 26.45C4.05 26.84 5.49 26.36 6.33 24.38L15 4.01ZM30.9375 4.01C31.7475 2.09 30.9675 0.979998 29.4075 0.559999C27.8475 0.169998 26.4375 0.679999 25.5975 2.63L16.8675 22.94C16.0275 24.89 16.8975 26.03 18.4275 26.45C19.9875 26.84 21.4275 26.36 22.2675 24.38L30.9375 4.01ZM45.135 26.18V7.34H49.725C51.465 7.34 52.155 5.9 52.155 4.67C52.155 3.44 51.495 2.09 49.725 2.09H34.305C32.535 2.09 31.875 3.44 31.875 4.67C31.875 5.9 32.565 7.34 34.305 7.34H38.895V26.18H45.135ZM52.5002 17.6C52.5002 24.5 58.1402 26.75 62.5502 26.75C66.9602 26.75 72.6002 24.5 72.6002 17.6V11.03C72.6002 4.13 66.9602 1.88 62.5502 1.88C58.0502 1.88 52.5002 4.13 52.5002 11.03V17.6ZM66.4802 17.78C66.4802 20.18 64.2602 21.62 62.5502 21.62C60.8402 21.62 58.6202 20.18 58.6202 17.78V10.85C58.6202 8.21 60.6602 7.01 62.5502 7.01C64.4402 7.01 66.4802 8.21 66.4802 10.85V17.78ZM80.1574 2.03C76.5574 2.03 75.4774 3.32 75.4774 6.77V21.44C75.4774 24.89 76.5574 26.18 80.1574 26.18H84.6274C89.8174 26.18 95.2774 23.42 95.2774 15.08V13.13C95.2774 4.79 89.8174 2.03 84.6274 2.03H80.1574ZM89.1574 15.56C89.1574 19.07 87.2674 20.99 84.4474 20.99H82.4674C81.7774 20.99 81.5974 20.84 81.5974 20.12V8.09C81.5974 7.37 81.7774 7.22 82.4674 7.22H84.4474C87.2674 7.22 89.1574 9.14 89.1574 12.65V15.56ZM97.7053 17.6C97.7053 24.5 103.345 26.75 107.755 26.75C112.165 26.75 117.805 24.5 117.805 17.6V11.03C117.805 4.13 112.165 1.88 107.755 1.88C103.255 1.88 97.7053 4.13 97.7053 11.03V17.6ZM111.685 17.78C111.685 20.18 109.465 21.62 107.755 21.62C106.045 21.62 103.825 20.18 103.825 17.78V10.85C103.825 8.21 105.865 7.01 107.755 7.01C109.645 7.01 111.685 8.21 111.685 10.85V17.78ZM120.233 7.46C120.233 9.32 121.433 10.49 123.443 10.49C125.453 10.49 126.653 9.29 126.653 7.46C126.653 5.63 125.453 4.43 123.443 4.43C121.433 4.43 120.233 5.6 120.233 7.46ZM120.233 20.6C120.233 22.46 121.433 23.63 123.443 23.63C125.453 23.63 126.653 22.43 126.653 20.6C126.653 18.77 125.453 17.57 123.443 17.57C121.433 17.57 120.233 18.74 120.233 20.6Z" fill="#316C74"/>
</svg>
